<svg version="1.2" xmlns="http://www.w3.org/2000/svg" viewBox="0 0 45 35" width="45" height="35">
	<title>Storm_Icon-svg</title>
	<style>
		.s0 { fill: #222222 } 
	</style>
	<g id="Student-Android-App">
		<g id="0.3-Enter-Name-Email">
			<g id="Icons/Cap" style="opacity: .3">
				<path id="Fill-4" class="s0" d="m27.4 22.8l2.3 1.5-7 4.7-7.1-4.7 2.3-1.5 4.8 3.1 4.7-3.1"/>
				<path id="Fill-18" fill-rule="evenodd" class="s0" d="m5.3 23.4c0 1.5-1.2 2.7-2.7 2.7-1.4 0-2.6-1.2-2.6-2.7 0-1.4 1.2-2.6 2.6-2.6 1.5 0 2.7 1.2 2.7 2.6z"/>
				<path id="Fill-19" fill-rule="evenodd" class="s0" d="m15.9 7.8c0 1.5-1.2 2.6-2.7 2.6-1.4 0-2.6-1.1-2.6-2.6 0-1.4 1.2-2.6 2.6-2.6 1.5 0 2.7 1.2 2.7 2.6z"/>
				<path id="Fill-20" fill-rule="evenodd" class="s0" d="m44.6 14.5l-10.7 7v5.9c-0.6 3.7-5.4 6.6-11.2 6.6-5.8 0-10.6-2.9-11.2-6.6v-2.9-3l-7.5-4.9v3.5q-0.6-0.3-1.4-0.3-0.7 0-1.4 0.3v-5.9l1.9-1.3 11.1 7.4v6.6c0.1 2.2 4.1 4.2 8.5 4.2 4.4 0 8.3-2 8.4-4.3v-6.5l8.8-5.8-17.2-11.4-6 3.9c-0.2-0.9-0.7-1.6-1.4-2.1l7.4-4.9z"/>
			</g>
		</g>
	</g>
</svg>